<?xml version="1.0" encoding="UTF-8" standalone="no"?>
<svg
   xmlns:dc="http://purl.org/dc/elements/1.1/"
   xmlns:cc="http://creativecommons.org/ns#"
   xmlns:rdf="http://www.w3.org/1999/02/22-rdf-syntax-ns#"
   xmlns:svg="http://www.w3.org/2000/svg"
   xmlns="http://www.w3.org/2000/svg"
   viewBox="0 0 2560 1440"
   height="1440"
   width="2560"
   xml:space="preserve"
   id="svg2"
   version="1.1"><metadata
     id="metadata8"><rdf:RDF><cc:Work
         rdf:about=""><dc:format>image/svg+xml</dc:format><dc:type
           rdf:resource="http://purl.org/dc/dcmitype/StillImage" /></cc:Work></rdf:RDF></metadata><defs
     id="defs6"><clipPath
       id="clipPath18"
       clipPathUnits="userSpaceOnUse"><path
         id="path16"
         d="M 0,1080 H 1920 V 0 H 0 Z" /></clipPath><linearGradient
       id="linearGradient42"
       spreadMethod="pad"
       gradientTransform="matrix(81.1057,4.30714,4.96125,-93.3092,780.5714,1369.8134)"
       gradientUnits="userSpaceOnUse"
       y2="0"
       x2="1"
       y1="0"
       x1="0"><stop
         id="stop38"
         offset="0"
         style="stop-opacity:1;stop-color:#8e378b" /><stop
         id="stop40"
         offset="1"
         style="stop-opacity:1;stop-color:#4d2676" /></linearGradient><linearGradient
       id="linearGradient52"
       spreadMethod="pad"
       gradientTransform="matrix(-270.762,4.25312e-5,4.25312e-5,270.762,780.1214,1435.7594)"
       gradientUnits="userSpaceOnUse"
       y2="0"
       x2="1"
       y1="0"
       x1="0"><stop
         id="stop48"
         offset="0"
         style="stop-opacity:1;stop-color:#4a2776" /><stop
         id="stop50"
         offset="1"
         style="stop-opacity:1;stop-color:#cc6716" /></linearGradient><linearGradient
       id="linearGradient62"
       spreadMethod="pad"
       gradientTransform="matrix(-180.949,2.84234e-5,2.84234e-5,180.949,800.7214,1434.4544)"
       gradientUnits="userSpaceOnUse"
       y2="0"
       x2="1"
       y1="0"
       x1="0"><stop
         id="stop58"
         offset="0"
         style="stop-opacity:1;stop-color:#4a2776" /><stop
         id="stop60"
         offset="1"
         style="stop-opacity:1;stop-color:#cc6716" /></linearGradient><linearGradient
       id="linearGradient72"
       spreadMethod="pad"
       gradientTransform="matrix(83.5516,1.31242e-5,-1.31242e-5,83.5516,855.3214,1394.3764)"
       gradientUnits="userSpaceOnUse"
       y2="0"
       x2="1"
       y1="0"
       x1="0"><stop
         id="stop68"
         offset="0"
         style="stop-opacity:1;stop-color:#8e378b" /><stop
         id="stop70"
         offset="1"
         style="stop-opacity:1;stop-color:#4d2676" /></linearGradient><linearGradient
       id="linearGradient82"
       spreadMethod="pad"
       gradientTransform="matrix(681,0,0,681,-129.3086,1368.3274)"
       gradientUnits="userSpaceOnUse"
       y2="0"
       x2="1"
       y1="0"
       x1="0"><stop
         id="stop78"
         offset="0"
         style="stop-opacity:1;stop-color:#e7943a" /><stop
         id="stop80"
         offset="1"
         style="stop-opacity:1;stop-color:#c36816" /></linearGradient><linearGradient
       id="linearGradient92"
       spreadMethod="pad"
       gradientTransform="matrix(633,0,0,633,875.6914,1361.1614)"
       gradientUnits="userSpaceOnUse"
       y2="0"
       x2="1"
       y1="0"
       x1="0"><stop
         id="stop88"
         offset="0"
         style="stop-opacity:1;stop-color:#8e378b" /><stop
         id="stop90"
         offset="1"
         style="stop-opacity:1;stop-color:#4d2676" /></linearGradient><linearGradient
       id="linearGradient102"
       spreadMethod="pad"
       gradientTransform="matrix(-233,3.65996e-5,3.65996e-5,233,763.6914,1411.6364)"
       gradientUnits="userSpaceOnUse"
       y2="0"
       x2="1"
       y1="0"
       x1="0"><stop
         id="stop98"
         offset="0"
         style="stop-opacity:1;stop-color:#4a2776" /><stop
         id="stop100"
         offset="1"
         style="stop-opacity:1;stop-color:#cc6716" /></linearGradient><linearGradient
       id="linearGradient112"
       spreadMethod="pad"
       gradientTransform="matrix(-89,1.39801e-5,1.39801e-5,89,882.6914,1384.3984)"
       gradientUnits="userSpaceOnUse"
       y2="0"
       x2="1"
       y1="0"
       x1="0"><stop
         id="stop108"
         offset="0"
         style="stop-opacity:1;stop-color:#8e378b" /><stop
         id="stop110"
         offset="1"
         style="stop-opacity:1;stop-color:#4a2776" /></linearGradient><linearGradient
       id="linearGradient218"
       spreadMethod="pad"
       gradientTransform="matrix(-54.0001,0,0,54.0001,806.6914,1361.5244)"
       gradientUnits="userSpaceOnUse"
       y2="0"
       x2="1"
       y1="0"
       x1="0"><stop
         id="stop212"
         offset="0"
         style="stop-opacity:1;stop-color:#4d2676" /><stop
         id="stop214"
         offset="0"
         style="stop-opacity:1;stop-color:#4d2676" /><stop
         id="stop216"
         offset="1"
         style="stop-opacity:1;stop-color:#4d2676" /></linearGradient></defs><g
     transform="matrix(1.3333333,0,0,-1.3333333,0,1440)"
     id="g10"><g
       id="g12"><g
         clip-path="url(#clipPath18)"
         id="g14"><g
           transform="translate(353.3086,624.5244)"
           id="g20"><path
             id="path22"
             style="fill:#000100;fill-opacity:1;fill-rule:nonzero;stroke:none"
             d="M 0,0 C -0.628,17.748 -3.291,34.821 -7.781,50.336 -0.987,54.448 5.46,59.219 11.487,64.608 27.022,46.366 36.21,23.92 37.926,0 Z m -13.276,-82.744 c 4.617,-2.995 9.035,-6.346 13.225,-10.039 -8.799,-7.75 -18.618,-14.001 -29.141,-18.611 6.581,8.637 11.817,18.498 15.916,28.65 m -122.123,0 c 4.098,-10.152 9.335,-20.013 15.918,-28.65 -10.525,4.61 -20.341,10.861 -29.143,18.611 4.189,3.693 8.609,7.044 13.225,10.039 m -0.003,149.046 c -4.613,2.998 -9.033,6.345 -13.222,10.037 8.802,7.752 18.618,14.004 29.141,18.611 -6.581,-8.636 -11.818,-18.499 -15.919,-28.648 M -29.192,94.95 C -18.669,90.343 -8.85,84.091 -0.051,76.339 -4.241,72.647 -8.659,69.3 -13.276,66.302 -17.375,76.453 -22.611,86.314 -29.192,94.95 M -66.116,48.639 v 54.518 c 18.499,-5.335 31.348,-26.862 38.316,-44.81 -11.981,-5.448 -24.909,-8.75 -38.316,-9.708 m 0,-48.639 v 32.166 c 15.166,0.946 29.814,4.501 43.434,10.456 3.538,-13.192 5.665,-27.61 6.234,-42.622 z m 0,-48.608 v 32.167 h 49.668 c -0.569,-15.014 -2.696,-29.43 -6.234,-42.624 -13.62,5.956 -28.268,9.512 -43.434,10.457 m 0,-16.473 c 13.407,-0.959 26.335,-4.26 38.316,-9.708 -6.968,-17.951 -19.817,-39.476 -38.316,-44.811 z m -16.443,0 V -119.6 c -18.499,5.335 -31.345,26.86 -38.317,44.811 11.982,5.448 24.909,8.749 38.317,9.708 m 0,48.64 v -32.167 c -15.167,-0.945 -29.815,-4.501 -43.435,-10.457 -3.537,13.194 -5.665,27.61 -6.234,42.624 z m 0,48.607 V 0 h -49.669 c 0.569,15.012 2.697,29.43 6.234,42.622 13.62,-5.955 28.268,-9.51 43.435,-10.456 m 0,16.473 c -13.408,0.958 -26.335,4.26 -38.317,9.708 6.968,17.949 19.818,39.475 38.317,44.81 z m -77.603,15.969 c 6.025,-5.389 12.474,-10.16 19.267,-14.267 -4.49,-15.52 -7.151,-32.593 -7.782,-50.341 h -37.926 c 1.716,23.92 10.907,46.366 26.441,64.608 m -26.441,-81.049 h 37.926 c 0.631,-17.747 3.292,-34.822 7.782,-50.339 -6.793,-4.11 -13.242,-8.879 -19.267,-14.27 -15.534,18.243 -24.725,40.685 -26.441,64.609 M 11.487,-81.05 c -6.027,5.391 -12.474,10.16 -19.268,14.27 4.49,15.517 7.152,32.592 7.781,50.339 H 37.926 C 36.21,-40.365 27.02,-62.807 11.487,-81.05 M 16.88,82.999 c -50.412,50.411 -132.015,50.419 -182.437,0 -50.411,-50.416 -50.418,-132.018 0,-182.434 50.413,-50.414 132.016,-50.421 182.437,0 50.412,50.409 50.418,132.012 0,182.434" /></g><g
           transform="translate(88.2666,613.9858)"
           id="g24"><path
             id="path26"
             style="fill:none;stroke:#56aa6e;stroke-width:18;stroke-linecap:round;stroke-linejoin:miter;stroke-miterlimit:10;stroke-dasharray:none;stroke-opacity:1"
             d="m 0,0 c 0.003,3.44 0.096,6.901 0.278,10.379 5.498,104.565 91.094,185.066 191.182,179.804 3.365,-0.177 6.706,-0.448 10.016,-0.811" /></g><g
           transform="translate(466.0156,621.3164)"
           id="g28"><path
             id="path30"
             style="fill:none;stroke:#ec6a2d;stroke-width:18;stroke-linecap:round;stroke-linejoin:miter;stroke-miterlimit:10;stroke-dasharray:none;stroke-opacity:1"
             d="m 0,0 c 0.045,-3.518 0.001,-7.057 -0.132,-10.616 -3.946,-104.996 -85.263,-187.178 -181.627,-183.557 -3.704,0.139 -7.378,0.402 -11.016,0.79" /></g><g
           transform="translate(456.48,665.4014)"
           id="g32"><path
             id="path34"
             style="fill:none;stroke:#ec6a2d;stroke-width:18;stroke-linecap:butt;stroke-linejoin:miter;stroke-miterlimit:10;stroke-dasharray:none;stroke-opacity:1"
             d="m 0,0 c 0,-0.766 -0.744,-1.386 -1.66,-1.386 -0.916,0 -1.66,0.62 -1.66,1.386 0,0.766 0.744,1.387 1.66,1.387 C -0.744,1.387 0,0.766 0,0 Z" /></g><g
           transform="translate(1134.1602,318.1895)"
           id="g36"><path
             id="path44"
             style="fill:none;stroke:url(#linearGradient42);stroke-width:3;stroke-linecap:butt;stroke-linejoin:miter;stroke-miterlimit:10;stroke-dasharray:none;stroke-opacity:1"
             d="M 0,0 C 10.87,17.641 23.412,31.029 41.633,30.062 58.119,29.185 69.473,15.736 78.98,-1.547" /></g><g
           transform="translate(1133,347.251)"
           id="g46"><path
             id="path54"
             style="fill:none;stroke:url(#linearGradient52);stroke-width:3;stroke-linecap:butt;stroke-linejoin:miter;stroke-miterlimit:10;stroke-dasharray:none;stroke-opacity:1"
             d="m 0,0 c -58.415,-17.438 -62.549,-156.907 -128.733,-156.907 -67.17,0 -80.145,160.276 -141.32,148.657" /></g><g
           transform="translate(1153,342.9219)"
           id="g56"><path
             id="path64"
             style="fill:none;stroke:url(#linearGradient62);stroke-width:3;stroke-linecap:butt;stroke-linejoin:miter;stroke-miterlimit:10;stroke-dasharray:none;stroke-opacity:1"
             d="m 0,0 c -42.378,-39.621 -53.813,-145.297 -114.782,-145.297 -27.922,0 -47.03,24.721 -63.84,54.123" /></g><g
           transform="translate(1210,324.6963)"
           id="g66"><path
             id="path74"
             style="fill:none;stroke:url(#linearGradient72);stroke-width:3;stroke-linecap:butt;stroke-linejoin:miter;stroke-miterlimit:10;stroke-dasharray:none;stroke-opacity:1"
             d="m 0,0 c 9.139,-20.331 18.273,-40.661 36.549,-40.661 21.195,0 31.967,30.526 44.32,53.006" /></g><g
           transform="translate(224,336.1963)"
           id="g76"><path
             id="path84"
             style="fill:none;stroke:url(#linearGradient82);stroke-width:14;stroke-linecap:butt;stroke-linejoin:round;stroke-miterlimit:10;stroke-dasharray:none;stroke-opacity:1"
             d="M 0,0 H 681" /></g><g
           transform="translate(1229,343.3633)"
           id="g86"><path
             id="path94"
             style="fill:none;stroke:url(#linearGradient92);stroke-width:14;stroke-linecap:butt;stroke-linejoin:round;stroke-miterlimit:10;stroke-dasharray:none;stroke-opacity:1"
             d="M 0,0 H 15.287 19.969 633" /></g><g
           transform="translate(1110,343)"
           id="g96"><path
             id="path104"
             style="fill:none;stroke:url(#linearGradient102);stroke-width:14;stroke-linecap:round;stroke-linejoin:round;stroke-miterlimit:10;stroke-dasharray:none;stroke-opacity:1"
             d="m 0,0 c -50.53,-6.53 -52.421,-100.221 -106.614,-100.221 -53.416,0 -63.738,101.587 -112.386,94.22" /></g><g
           transform="translate(1229,343.2422)"
           id="g106"><path
             id="path114"
             style="fill:none;stroke:url(#linearGradient112);stroke-width:14;stroke-linecap:round;stroke-linejoin:round;stroke-miterlimit:10;stroke-dasharray:none;stroke-opacity:1"
             d="m 0,0 c -17.386,0.866 -18.358,-46.242 -38.283,-46.242 -17.711,0 -25.204,44.166 -36.717,45.575" /></g><g
           transform="translate(557.9492,538.9482)"
           id="g116"><path
             id="path118"
             style="fill:#ec6a2d;fill-opacity:1;fill-rule:nonzero;stroke:none"
             d="M 0,0 H -50.519 V 13.143 H 65.715 V 0 H 15.197 V -130.609 H 0 Z" /></g><g
           transform="translate(649.2314,494.6934)"
           id="g120"><path
             id="path122"
             style="fill:#ec6a2d;fill-opacity:1;fill-rule:nonzero;stroke:none"
             d="m 0,0 c -7.053,-6.643 -11.058,-15.3 -12.014,-25.979 h 76.6 C 63.626,-15.3 59.622,-6.643 52.572,0 45.52,6.639 36.724,9.96 26.183,9.96 15.777,9.96 7.049,6.639 0,0 m 78.345,-36.862 h -90.359 c 0.822,-11.228 5.134,-20.299 12.938,-27.211 7.804,-6.914 17.661,-10.37 29.572,-10.37 6.706,0 12.867,1.196 18.483,3.593 5.611,2.394 10.473,5.92 14.58,10.577 l 8.214,-9.448 c -4.794,-5.75 -10.781,-10.133 -17.969,-13.142 -7.187,-3.013 -15.094,-4.518 -23.719,-4.518 -11.089,0 -20.915,2.361 -29.469,7.085 -8.558,4.723 -15.232,11.259 -20.023,19.611 -4.794,8.35 -7.187,17.796 -7.187,28.34 0,10.541 2.291,19.988 6.879,28.34 4.586,8.35 10.884,14.854 18.893,19.51 8.009,4.652 17.01,6.981 27.005,6.981 9.992,0 18.961,-2.329 26.902,-6.981 7.939,-4.656 14.17,-11.125 18.688,-19.407 4.519,-8.286 6.777,-17.764 6.777,-28.443 z" /></g><g
           transform="translate(773.6777,414.2939)"
           id="g124"><path
             id="path126"
             style="fill:#ec6a2d;fill-opacity:1;fill-rule:nonzero;stroke:none"
             d="m 0,0 c -8.42,4.653 -15.027,11.192 -19.817,19.612 -4.794,8.42 -7.188,17.899 -7.188,28.443 0,10.541 2.394,19.987 7.188,28.34 4.79,8.349 11.397,14.853 19.817,19.509 8.419,4.653 17.969,6.982 28.648,6.982 9.309,0 17.625,-1.816 24.951,-5.442 7.322,-3.629 13.108,-8.933 17.353,-15.916 L 60.068,74.136 c -3.562,5.339 -8.08,9.343 -13.554,12.013 -5.477,2.67 -11.433,4.004 -17.866,4.004 -7.804,0 -14.821,-1.745 -21.05,-5.236 -6.231,-3.491 -11.089,-8.455 -14.58,-14.889 -3.492,-6.436 -5.237,-13.758 -5.237,-21.973 0,-8.353 1.745,-15.71 5.237,-22.076 3.491,-6.367 8.349,-11.295 14.58,-14.787 6.229,-3.491 13.246,-5.236 21.05,-5.236 6.433,0 12.389,1.3 17.866,3.901 5.474,2.6 9.992,6.573 13.554,11.912 L 70.952,14.376 C 66.707,7.394 60.889,2.086 53.497,-1.54 46.104,-5.169 37.818,-6.981 28.648,-6.981 17.969,-6.981 8.419,-4.655 0,0" /></g><g
           transform="translate(958.9116,505.3721)"
           id="g128"><path
             id="path130"
             style="fill:#ec6a2d;fill-opacity:1;fill-rule:nonzero;stroke:none"
             d="M 0,0 C 8.008,-7.875 12.014,-19.34 12.014,-34.398 V -97.033 H -2.567 v 61.197 c 0,11.225 -2.808,19.782 -8.42,25.67 -5.616,5.886 -13.624,8.831 -24.027,8.831 -11.638,0 -20.844,-3.459 -27.621,-10.371 -6.777,-6.915 -10.166,-16.464 -10.166,-28.648 v -56.679 h -14.58 V 55.345 h 14.58 V -7.906 c 3.969,6.295 9.447,11.156 16.429,14.58 6.982,3.421 14.992,5.134 24.027,5.134 C -18.791,11.808 -8.009,7.871 0,0" /></g><g
           transform="translate(1097.9385,505.3721)"
           id="g132"><path
             id="path134"
             style="fill:#ec6a2d;fill-opacity:1;fill-rule:nonzero;stroke:none"
             d="M 0,0 C 8.009,-7.875 12.014,-19.34 12.014,-34.398 V -97.033 H -2.567 v 61.197 c 0,11.225 -2.808,19.782 -8.42,25.67 -5.616,5.886 -13.624,8.831 -24.028,8.831 -11.637,0 -20.843,-3.459 -27.62,-10.371 -6.777,-6.915 -10.166,-16.464 -10.166,-28.648 v -56.679 h -14.58 V 10.986 h 13.964 v -19.92 c 3.97,6.572 9.479,11.671 16.532,15.3 7.049,3.626 15.229,5.442 24.54,5.442 C -18.791,11.808 -8.009,7.871 0,0" /></g><g
           transform="translate(1214.7852,425.4863)"
           id="g136"><path
             id="path138"
             style="fill:#ec6a2d;fill-opacity:1;fill-rule:nonzero;stroke:none"
             d="m 0,0 c 6.09,3.491 10.849,8.452 14.272,14.889 3.421,6.433 5.134,13.759 5.134,21.973 0,8.215 -1.713,15.537 -5.134,21.974 C 10.849,65.27 6.09,70.233 0,73.725 c -6.094,3.491 -12.973,5.236 -20.639,5.236 -7.669,0 -14.549,-1.745 -20.638,-5.236 -6.094,-3.492 -10.885,-8.455 -14.375,-14.889 -3.492,-6.437 -5.238,-13.759 -5.238,-21.974 0,-8.214 1.746,-15.54 5.238,-21.973 3.49,-6.437 8.281,-11.398 14.375,-14.889 6.089,-3.491 12.969,-5.236 20.638,-5.236 7.666,0 14.545,1.745 20.639,5.236 m -48.773,-11.089 c -8.353,4.723 -14.924,11.259 -19.715,19.611 -4.793,8.35 -7.188,17.796 -7.188,28.34 0,10.541 2.395,19.988 7.188,28.34 4.791,8.35 11.362,14.854 19.715,19.51 8.349,4.652 17.728,6.981 28.134,6.981 10.403,0 19.783,-2.329 28.135,-6.981 8.349,-4.656 14.889,-11.16 19.611,-19.51 4.724,-8.352 7.085,-17.799 7.085,-28.34 0,-10.544 -2.361,-19.99 -7.085,-28.34 C 22.385,0.17 15.845,-6.366 7.496,-11.089 c -8.352,-4.724 -17.732,-7.085 -28.135,-7.085 -10.406,0 -19.785,2.361 -28.134,7.085" /></g><path
           id="path140"
           style="fill:#ec6a2d;fill-opacity:1;fill-rule:nonzero;stroke:none"
           d="m 1278.756,560.717 h 14.58 V 408.339 h -14.58 z" /><g
           transform="translate(1398.7881,425.4863)"
           id="g142"><path
             id="path144"
             style="fill:#ec6a2d;fill-opacity:1;fill-rule:nonzero;stroke:none"
             d="m 0,0 c 6.09,3.491 10.849,8.452 14.272,14.889 3.421,6.433 5.134,13.759 5.134,21.973 0,8.215 -1.713,15.537 -5.134,21.974 C 10.849,65.27 6.09,70.233 0,73.725 c -6.094,3.491 -12.973,5.236 -20.639,5.236 -7.669,0 -14.549,-1.745 -20.638,-5.236 -6.094,-3.492 -10.885,-8.455 -14.375,-14.889 -3.492,-6.437 -5.238,-13.759 -5.238,-21.974 0,-8.214 1.746,-15.54 5.238,-21.973 3.49,-6.437 8.281,-11.398 14.375,-14.889 6.089,-3.491 12.969,-5.236 20.638,-5.236 7.666,0 14.545,1.745 20.639,5.236 m -48.773,-11.089 c -8.353,4.723 -14.924,11.259 -19.715,19.611 -4.793,8.35 -7.188,17.796 -7.188,28.34 0,10.541 2.395,19.988 7.188,28.34 4.791,8.35 11.362,14.854 19.715,19.51 8.349,4.652 17.728,6.981 28.134,6.981 10.403,0 19.783,-2.329 28.135,-6.981 8.349,-4.656 14.889,-11.16 19.611,-19.51 4.724,-8.352 7.085,-17.799 7.085,-28.34 0,-10.544 -2.361,-19.99 -7.085,-28.34 C 22.385,0.17 15.845,-6.366 7.496,-11.089 c -8.352,-4.724 -17.732,-7.085 -28.135,-7.085 -10.406,0 -19.785,2.361 -28.134,7.085" /></g><g
           transform="translate(1528.6787,430.415)"
           id="g146"><path
             id="path148"
             style="fill:#ec6a2d;fill-opacity:1;fill-rule:nonzero;stroke:none"
             d="m 0,0 c 6.295,3.354 11.191,8.041 14.683,14.067 3.491,6.023 5.237,12.868 5.237,20.537 0,7.666 -1.746,14.477 -5.237,20.433 -3.492,5.955 -8.353,10.608 -14.58,13.964 -6.232,3.353 -13.317,5.031 -21.255,5.031 -7.804,0 -14.822,-1.642 -21.05,-4.928 -6.232,-3.286 -11.09,-7.942 -14.58,-13.964 -3.491,-6.027 -5.238,-12.87 -5.238,-20.536 0,-7.669 1.747,-14.514 5.238,-20.537 3.49,-6.026 8.348,-10.713 14.58,-14.067 6.228,-3.356 13.246,-5.031 21.05,-5.031 7.803,0 14.853,1.675 21.152,5.031 M 34.09,85.943 V -8.933 c 0,-18.344 -4.486,-31.933 -13.451,-40.764 -8.969,-8.83 -22.488,-13.246 -40.56,-13.246 -9.995,0 -19.476,1.473 -28.442,4.416 -8.968,2.945 -16.259,7.017 -21.87,12.218 l 7.392,11.089 c 5.201,-4.652 11.532,-8.281 18.996,-10.884 7.46,-2.598 15.299,-3.901 23.514,-3.901 13.688,0 23.751,3.183 30.187,9.549 6.434,6.366 9.653,16.259 9.653,29.675 V 2.978 C 14.991,-3.87 9.067,-9.071 1.745,-12.63 c -7.325,-3.561 -15.437,-5.339 -24.335,-5.339 -10.134,0 -19.34,2.224 -27.621,6.674 -8.285,4.447 -14.786,10.679 -19.51,18.689 -4.722,8.008 -7.085,17.076 -7.085,27.21 0,10.129 2.363,19.166 7.085,27.107 4.724,7.938 11.193,14.1 19.408,18.482 8.213,4.38 17.455,6.572 27.723,6.572 9.17,0 17.455,-1.848 24.849,-5.544 7.392,-3.698 13.348,-9.036 17.866,-16.019 v 20.741 z" /></g><path
           id="path150"
           style="fill:#ec6a2d;fill-opacity:1;fill-rule:nonzero;stroke:none"
           d="m 1603.634,516.358 h 14.58 v -108.02 h -14.58 z m -0.206,26.698 c -2.054,2.053 -3.08,4.517 -3.08,7.393 0,2.737 1.026,5.134 3.08,7.187 2.053,2.054 4.586,3.081 7.598,3.081 3.01,0 5.545,-0.995 7.599,-2.978 2.054,-1.987 3.08,-4.348 3.08,-7.085 0,-3.013 -1.026,-5.545 -3.08,-7.598 -2.054,-2.054 -4.589,-3.081 -7.599,-3.081 -3.012,0 -5.545,1.027 -7.598,3.081" /><g
           transform="translate(1674.585,494.6934)"
           id="g152"><path
             id="path154"
             style="fill:#ec6a2d;fill-opacity:1;fill-rule:nonzero;stroke:none"
             d="m 0,0 c -7.053,-6.643 -11.058,-15.3 -12.014,-25.979 h 76.6 C 63.626,-15.3 59.622,-6.643 52.572,0 45.52,6.639 36.724,9.96 26.184,9.96 15.777,9.96 7.05,6.639 0,0 m 78.345,-36.862 h -90.359 c 0.822,-11.228 5.134,-20.299 12.938,-27.211 7.804,-6.914 17.661,-10.37 29.572,-10.37 6.706,0 12.867,1.196 18.483,3.593 5.612,2.394 10.473,5.92 14.58,10.577 l 8.214,-9.448 c -4.794,-5.75 -10.781,-10.133 -17.968,-13.142 -7.188,-3.013 -15.095,-4.518 -23.72,-4.518 -11.089,0 -20.914,2.361 -29.469,7.085 -8.557,4.723 -15.232,11.259 -20.023,19.611 -4.793,8.35 -7.188,17.796 -7.188,28.34 0,10.541 2.291,19.988 6.88,28.34 4.585,8.35 10.884,14.854 18.894,19.51 8.008,4.652 17.009,6.981 27.005,6.981 9.992,0 18.96,-2.329 26.902,-6.981 7.938,-4.656 14.17,-11.125 18.687,-19.407 4.518,-8.286 6.778,-17.764 6.778,-28.443 z" /></g><g
           transform="translate(1786.709,411.1113)"
           id="g156"><path
             id="path158"
             style="fill:#ec6a2d;fill-opacity:1;fill-rule:nonzero;stroke:none"
             d="m 0,0 c -8.009,2.531 -14.272,5.715 -18.79,9.549 l 6.571,11.501 C -7.701,17.487 -2.021,14.58 4.826,12.321 11.67,10.063 18.79,8.933 26.184,8.933 c 9.857,0 17.147,1.541 21.871,4.621 4.722,3.08 7.085,7.425 7.085,13.04 0,3.969 -1.303,7.085 -3.903,9.344 -2.602,2.259 -5.887,3.969 -9.857,5.134 -3.972,1.161 -9.241,2.291 -15.813,3.389 -8.762,1.643 -15.812,3.317 -21.152,5.031 -5.339,1.71 -9.893,4.62 -13.656,8.728 -3.768,4.107 -5.648,9.787 -5.648,17.045 0,9.036 3.764,16.428 11.295,22.178 7.528,5.75 18.001,8.625 31.42,8.625 6.983,0 13.965,-0.923 20.947,-2.771 6.983,-1.849 12.733,-4.281 17.25,-7.291 L 59.657,84.301 c -8.901,6.16 -19.509,9.241 -31.831,9.241 -9.311,0 -16.326,-1.644 -21.049,-4.929 -4.723,-3.286 -7.085,-7.598 -7.085,-12.937 0,-4.108 1.334,-7.394 4.004,-9.858 2.67,-2.464 5.988,-4.281 9.96,-5.442 3.97,-1.165 9.448,-2.361 16.429,-3.594 8.626,-1.642 15.537,-3.286 20.742,-4.928 5.201,-1.643 9.652,-4.451 13.348,-8.42 C 67.872,39.461 69.72,33.987 69.72,27.005 69.72,17.559 65.783,10.063 57.912,4.518 50.037,-1.027 39.121,-3.799 25.156,-3.799 16.394,-3.799 8.009,-2.535 0,0" /></g><path
           id="path160"
           style="fill:#59257e;fill-opacity:1;fill-rule:nonzero;stroke:none"
           d="m 504.466,815.014 h 51.985 v -240.8 h -51.985 z" /><g
           transform="translate(764.8706,741.3979)"
           id="g162"><path
             id="path164"
             style="fill:#59257e;fill-opacity:1;fill-rule:nonzero;stroke:none"
             d="m 0,0 c 13.157,-13.76 19.735,-34.174 19.735,-61.232 v -105.952 h -50.06 v 97.696 c 0,14.674 -2.998,25.628 -8.985,32.852 -5.992,7.224 -14.656,10.836 -25.993,10.836 -12.625,0 -22.678,-4.187 -30.164,-12.556 -7.491,-8.374 -11.231,-20.812 -11.231,-37.324 v -91.504 h -50.06 V 17.888 h 47.814 V -3.784 c 6.628,7.794 14.866,13.814 24.709,18.06 9.837,4.241 20.642,6.364 32.41,6.364 C -30.435,20.64 -13.157,13.76 0,0" /></g><g
           transform="translate(988.5332,741.3979)"
           id="g166"><path
             id="path168"
             style="fill:#59257e;fill-opacity:1;fill-rule:nonzero;stroke:none"
             d="m 0,0 c 13.157,-13.76 19.735,-34.174 19.735,-61.232 v -105.952 h -50.059 v 97.696 c 0,14.674 -2.998,25.628 -8.986,32.852 -5.991,7.224 -14.655,10.836 -25.992,10.836 -12.625,0 -22.678,-4.187 -30.164,-12.556 -7.492,-8.374 -11.232,-20.812 -11.232,-37.324 v -91.504 h -50.06 V 17.888 h 47.814 V -3.784 c 6.629,7.794 14.866,13.814 24.709,18.06 9.838,4.241 20.643,6.364 32.411,6.364 C -30.435,20.64 -13.156,13.76 0,0" /></g><g
           transform="translate(1171.1211,629.4258)"
           id="g170"><path
             id="path172"
             style="fill:#59257e;fill-opacity:1;fill-rule:nonzero;stroke:none"
             d="M 0,0 C 8.233,9.288 12.354,21.726 12.354,37.324 12.354,52.917 8.233,65.36 0,74.648 -8.237,83.936 -18.772,88.58 -31.608,88.58 c -12.836,0 -23.425,-4.644 -31.769,-13.932 -8.344,-9.288 -12.515,-21.731 -12.515,-37.324 0,-15.598 4.171,-28.036 12.515,-37.324 8.344,-9.288 18.933,-13.932 31.769,-13.932 12.836,0 23.371,4.644 31.608,13.932 m -80.545,-45.752 c -14.44,8.138 -25.726,19.436 -33.854,33.884 -8.133,14.448 -12.195,30.842 -12.195,49.192 0,18.345 4.062,34.744 12.195,49.192 8.128,14.448 19.414,25.741 33.854,33.884 14.441,8.138 30.751,12.212 48.937,12.212 18.18,0 34.441,-4.074 48.776,-12.212 14.33,-8.143 25.561,-19.436 33.694,-33.884 C 58.99,72.068 63.057,55.669 63.057,37.324 63.057,18.974 58.99,2.58 50.862,-11.868 42.729,-26.316 31.498,-37.614 17.168,-45.752 2.833,-53.895 -13.428,-57.964 -31.608,-57.964 c -18.186,0 -34.496,4.069 -48.937,12.212" /></g><g
           transform="translate(437.1216,711.5767)"
           id="g174"><path
             id="path176"
             style="fill:none;stroke:#ec6a2d;stroke-width:18;stroke-linecap:butt;stroke-linejoin:miter;stroke-miterlimit:10;stroke-dasharray:none;stroke-opacity:1"
             d="m 0,0 c 0,-0.766 -0.743,-1.386 -1.66,-1.386 -0.916,0 -1.66,0.62 -1.66,1.386 0,0.766 0.744,1.387 1.66,1.387 C -0.743,1.387 0,0.766 0,0 Z" /></g><g
           transform="translate(411.1216,747.5767)"
           id="g178"><path
             id="path180"
             style="fill:none;stroke:#ec6a2d;stroke-width:18;stroke-linecap:butt;stroke-linejoin:miter;stroke-miterlimit:10;stroke-dasharray:none;stroke-opacity:1"
             d="m 0,0 c 0,-0.766 -0.743,-1.386 -1.66,-1.386 -0.916,0 -1.66,0.62 -1.66,1.386 0,0.766 0.744,1.387 1.66,1.387 C -0.743,1.387 0,0.766 0,0 Z" /></g><g
           transform="translate(372.1216,775.5767)"
           id="g182"><path
             id="path184"
             style="fill:none;stroke:#ec6a2d;stroke-width:18;stroke-linecap:butt;stroke-linejoin:miter;stroke-miterlimit:10;stroke-dasharray:none;stroke-opacity:1"
             d="m 0,0 c 0,-0.766 -0.743,-1.386 -1.66,-1.386 -0.916,0 -1.66,0.62 -1.66,1.386 0,0.766 0.744,1.387 1.66,1.387 C -0.743,1.387 0,0.766 0,0 Z" /></g><g
           transform="translate(331.1216,793.5767)"
           id="g186"><path
             id="path188"
             style="fill:none;stroke:#ec6a2d;stroke-width:18;stroke-linecap:butt;stroke-linejoin:miter;stroke-miterlimit:10;stroke-dasharray:none;stroke-opacity:1"
             d="m 0,0 c 0,-0.766 -0.743,-1.386 -1.66,-1.386 -0.916,0 -1.66,0.62 -1.66,1.386 0,0.766 0.744,1.387 1.66,1.387 C -0.743,1.387 0,0.766 0,0 Z" /></g><g
           transform="translate(230.1216,429.5771)"
           id="g190"><path
             id="path192"
             style="fill:none;stroke:#56aa6e;stroke-width:18;stroke-linecap:round;stroke-linejoin:miter;stroke-miterlimit:10;stroke-dasharray:none;stroke-opacity:1"
             d="m 0,0 c 0,-0.767 -0.743,-1.387 -1.66,-1.387 -0.916,0 -1.66,0.62 -1.66,1.387 0,0.766 0.744,1.387 1.66,1.387 C -0.743,1.387 0,0.766 0,0 Z" /></g><g
           transform="translate(190.1216,449.5771)"
           id="g194"><path
             id="path196"
             style="fill:none;stroke:#56aa6e;stroke-width:18;stroke-linecap:round;stroke-linejoin:miter;stroke-miterlimit:10;stroke-dasharray:none;stroke-opacity:1"
             d="m 0,0 c 0,-0.767 -0.743,-1.387 -1.66,-1.387 -0.916,0 -1.66,0.62 -1.66,1.387 0,0.766 0.744,1.387 1.66,1.387 C -0.743,1.387 0,0.766 0,0 Z" /></g><g
           transform="translate(146.1216,483.5771)"
           id="g198"><path
             id="path200"
             style="fill:none;stroke:#56aa6e;stroke-width:18;stroke-linecap:round;stroke-linejoin:miter;stroke-miterlimit:10;stroke-dasharray:none;stroke-opacity:1"
             d="m 0,0 c 0,-0.767 -0.743,-1.387 -1.66,-1.387 -0.916,0 -1.66,0.62 -1.66,1.387 0,0.766 0.744,1.387 1.66,1.387 C -0.743,1.387 0,0.766 0,0 Z" /></g><g
           transform="translate(113.1216,519.5771)"
           id="g202"><path
             id="path204"
             style="fill:none;stroke:#56aa6e;stroke-width:18;stroke-linecap:round;stroke-linejoin:miter;stroke-miterlimit:10;stroke-dasharray:none;stroke-opacity:1"
             d="m 0,0 c 0,-0.767 -0.743,-1.387 -1.66,-1.387 -0.916,0 -1.66,0.62 -1.66,1.387 0,0.766 0.744,1.387 1.66,1.387 C -0.743,1.387 0,0.766 0,0 Z" /></g><g
           transform="translate(95.1216,562.5767)"
           id="g206"><path
             id="path208"
             style="fill:none;stroke:#56aa6e;stroke-width:18;stroke-linecap:round;stroke-linejoin:miter;stroke-miterlimit:10;stroke-dasharray:none;stroke-opacity:1"
             d="m 0,0 c 0,-0.766 -0.743,-1.386 -1.66,-1.386 -0.916,0 -1.66,0.62 -1.66,1.386 0,0.766 0.744,1.387 1.66,1.387 C -0.743,1.387 0,0.766 0,0 Z" /></g><g
           transform="translate(1153,343)"
           id="g210"><path
             id="path220"
             style="fill:none;stroke:url(#linearGradient218);stroke-width:14;stroke-linecap:round;stroke-linejoin:round;stroke-miterlimit:10;stroke-dasharray:none;stroke-opacity:1"
             d="M 0,0 H -0.966 -1.262 -40" /></g></g></g></g></svg>